<?xml version="1.0" encoding="utf-8"?>
<!-- Generator: Adobe Illustrator 26.0.3, SVG Export Plug-In . SVG Version: 6.00 Build 0)  -->
<svg version="1.0" id="Layer_1" xmlns="http://www.w3.org/2000/svg" xmlns:xlink="http://www.w3.org/1999/xlink" x="0px" y="0px"
	 viewBox="0 0 298 220" style="enable-background:new 0 0 298 220;" xml:space="preserve">
<style type="text/css">
	.st0{fill:#1C4396;}
	.st1{fill:#2C71F0;}
	.st2{fill:none;}
</style>
<path class="st0" d="M207.5,140.8c-0.3,0-0.5-0.2-0.5-0.5V81.6c0-0.2,0.2-0.4,0.4-0.5l10.2-2.1c0.3-0.1,0.5,0.1,0.6,0.4
	c0,0,0,0.1,0,0.1v60.8c0,0.3-0.2,0.5-0.5,0.5c0,0,0,0,0,0H207.5z"/>
<path class="st0" d="M78.9,142c-3.9,0.1-7.7-1-10.9-3c-3.2-2-5.9-4.8-7.6-8.1c-1.9-3.6-2.9-7.7-2.8-11.7c-0.1-4.1,0.9-8.1,2.8-11.7
	c1.8-3.3,4.4-6.1,7.6-8.1c3.3-2,7.1-3.1,11-3c3-0.1,5.9,0.6,8.6,1.8c1.9,0.9,3.6,2.3,5,3.9c0.2,0.3,0.5,0.3,0.7,0.2
	c0.2-0.1,0.3-0.3,0.3-0.5V80.6c0-0.2,0.2-0.4,0.4-0.5l10.1-2.1c0.3-0.1,0.5,0.1,0.6,0.4c0,0,0,0.1,0,0.1v62c0,0.3-0.2,0.5-0.5,0.5
	c0,0,0,0,0,0H95c-0.2,0-0.4-0.2-0.5-0.4l-0.9-4.7c-0.1-0.3-0.3-0.5-0.6-0.4c-0.1,0-0.2,0.1-0.3,0.2c-1.4,1.6-3.1,3.1-4.9,4.2
	C85.1,141.4,82,142.1,78.9,142z M81.2,132.2c3.3,0.1,6.6-1.2,8.8-3.6c2.4-2.5,3.6-5.9,3.5-9.4c0.1-3.4-1.1-6.8-3.5-9.3
	c-2.3-2.5-5.5-3.8-8.8-3.7c-3.3-0.1-6.5,1.2-8.8,3.6c-2.4,2.5-3.6,5.8-3.5,9.3c-0.1,3.5,1.1,6.8,3.5,9.4
	C74.7,130.9,77.9,132.3,81.2,132.2L81.2,132.2z"/>
<path class="st0" d="M132,142c-4.1,0.1-8.1-0.9-11.7-2.8c-3.4-1.8-6.1-4.6-8-7.9c-2-3.6-3-7.6-2.9-11.7c-0.1-4.2,0.9-8.3,2.8-12
	c1.8-3.4,4.6-6.2,7.9-8.2c3.6-2.1,7.7-3.1,11.9-3c4-0.1,7.9,0.9,11.3,2.8c3.2,1.8,5.9,4.5,7.6,7.8c1.9,3.3,2.9,7,2.8,10.8
	c0,0.7,0,1.3-0.1,2c0,0.6,0,1.1,0,1.7c0,0.3-0.2,0.5-0.5,0.4h-32.1c-0.3,0-0.5,0.2-0.5,0.5c0,0,0,0,0,0.1c0.3,6,5.3,10.6,11.3,10.3
	c2,0.1,4-0.4,5.7-1.5c1.4-0.9,2.6-2.2,3.4-3.8c0.1-0.2,0.3-0.3,0.4-0.3h10.4c0.3,0,0.5,0.2,0.5,0.5c0,0.1,0,0.1,0,0.2
	c-0.8,2.5-2.2,4.9-3.9,6.9c-1.9,2.3-4.3,4-7,5.3C138.5,141.4,135.2,142.1,132,142z M132.1,105.6c-2.6,0-5.2,0.8-7.3,2.4
	c-2.1,1.6-3.5,3.9-3.9,6.4c-0.1,0.3,0.1,0.5,0.4,0.6c0,0,0.1,0,0.1,0h20.5c0.3,0,0.5-0.2,0.5-0.4c0,0,0,0,0-0.1
	c-0.2-2.4-1.3-4.7-3.1-6.3C137.3,106.4,134.7,105.5,132.1,105.6L132.1,105.6z"/>
<path class="st0" d="M180.8,142c-4.1,0.1-8.1-0.9-11.7-2.8c-3.4-1.8-6.1-4.6-8-7.9c-2-3.6-3-7.6-2.9-11.7c-0.1-4.2,0.9-8.3,2.8-12
	c1.8-3.4,4.6-6.2,8-8.1c3.6-2.1,7.7-3.1,11.9-3c3.9-0.1,7.8,0.9,11.3,2.8c3.2,1.8,5.8,4.5,7.6,7.8c1.9,3.3,2.9,7,2.8,10.8
	c0,0.7,0,1.3-0.1,2c0,0.6,0,1.1-0.1,1.7c0,0.3-0.2,0.5-0.5,0.4h-32.1c-0.3,0-0.5,0.2-0.5,0.5c0,0,0,0,0,0.1c0.2,2.8,1.4,5.5,3.5,7.5
	c2.1,1.9,4.9,2.9,7.8,2.9c2,0.1,4-0.4,5.7-1.5c1.4-0.9,2.6-2.2,3.4-3.8c0.1-0.2,0.3-0.3,0.4-0.3h10.4c0.3,0,0.5,0.2,0.5,0.5
	c0,0.1,0,0.1,0,0.2c-0.8,2.5-2.2,4.9-3.9,6.9c-1.9,2.3-4.3,4-7,5.3C187.2,141.4,184,142.1,180.8,142z M180.9,105.6
	c-2.6,0-5.2,0.8-7.3,2.4c-2.1,1.6-3.5,3.9-3.9,6.4c-0.1,0.2,0.1,0.5,0.3,0.6c0,0,0.1,0,0.1,0h20.5c0.3,0,0.5-0.2,0.5-0.5
	c0,0,0,0,0-0.1c-0.2-2.4-1.3-4.7-3.1-6.3C186.1,106.4,183.5,105.5,180.9,105.6L180.9,105.6z"/>
<circle class="st1" cx="232.9" cy="133.2" r="7.6"/>
<rect x="49" y="10" class="st2" width="200" height="200"/>
</svg>
